<?xml version="1.0" encoding="iso-8859-1"?>
<!-- Generator: Adobe Illustrator 19.0.0, SVG Export Plug-In . SVG Version: 6.00 Build 0)  -->
<svg version="1.1" id="Layer_1" xmlns="http://www.w3.org/2000/svg" xmlns:xlink="http://www.w3.org/1999/xlink" x="0px" y="0px"
	 viewBox="0 0 512 512" style="enable-background:new 0 0 512 512;" xml:space="preserve">
<g>
	<path style="fill:#CC9758;" d="M383.905,152.764c-0.738,0-1.49-0.141-2.215-0.436c-15.223-6.214-23.361-20.411-23.537-41.055
		c-0.123-14.578,3.794-27.309,3.961-27.844c0.966-3.092,4.26-4.816,7.348-3.853c3.091,0.964,4.815,4.249,3.854,7.341l0,0
		c-0.135,0.439-13.256,43.908,12.81,54.549c3,1.224,4.438,4.648,3.213,7.648C388.41,151.386,386.218,152.764,383.905,152.764z"/>
	<path style="fill:#CC9758;" d="M466.757,413.544c0,54.377-94.358,98.456-210.763,98.456c-47.621,0-91.569-7.385-126.858-19.84
		c-50.956-17.959-83.892-46.493-83.892-78.617c41.146-83.772,44.615-229.547,44.615-229.547H422.13
		C422.13,183.997,425.611,329.772,466.757,413.544z"/>
</g>
<path style="fill:#C18C52;" d="M174.187,219.832c0,0-0.206,158.241-45.051,272.33c-50.956-17.96-83.892-46.494-83.892-78.618
	c41.146-83.772,44.615-229.547,44.615-229.547h72.421L174.187,219.832z"/>
<ellipse style="fill:#F2C386;" cx="255.998" cy="183.989" rx="166.133" ry="77.617"/>
<g>
	<path style="fill:#DDAF78;" d="M345.339,223.71c-2.619,0-5.081-1.605-6.048-4.203c-1.244-3.339,0.456-7.054,3.795-8.298
		c20.541-7.649,32.804-17.823,32.804-27.218c0-10.514-15.372-21.904-40.114-29.726c-3.398-1.075-5.283-4.699-4.208-8.097
		c1.073-3.398,4.704-5.282,8.096-4.207c31.683,10.015,49.131,24.942,49.131,42.031c0,15.457-14.634,29.417-41.207,39.311
		C346.848,223.579,346.086,223.71,345.339,223.71z"/>
	<path style="fill:#DDAF78;" d="M255.999,237.487c-34.497,0-67.025-5.038-91.59-14.184c-26.571-9.893-41.205-23.854-41.205-39.311
		s14.634-29.417,41.205-39.311c24.565-9.146,57.092-14.184,91.59-14.184c20.919,0,41.71,1.912,60.128,5.532
		c3.496,0.687,5.774,4.079,5.087,7.576c-0.686,3.496-4.077,5.77-7.575,5.087c-17.612-3.461-37.543-5.29-57.639-5.29
		c-70.653,0-119.89,21.392-119.89,40.591s49.238,40.591,119.89,40.591c21.665,0,42.956-2.108,61.573-6.097
		c3.488-0.741,6.916,1.473,7.661,4.958c0.747,3.484-1.474,6.915-4.958,7.661C300.785,235.279,278.557,237.487,255.999,237.487z"/>
	<path style="fill:#DDAF78;" d="M172.396,190.445c-3.563,0-6.452-2.888-6.452-6.452c0-24.536,80.838-25.244,90.056-25.244
		c8.181,0,16.268,0.26,24.042,0.774c3.556,0.235,6.248,3.307,6.014,6.864c-0.235,3.556-3.312,6.234-6.864,6.013
		c-7.492-0.495-15.295-0.746-23.192-0.746c-45.628,0-73.693,8.166-77.176,12.913C178.534,187.86,175.766,190.445,172.396,190.445z"
		/>
	<path style="fill:#DDAF78;" d="M255.999,209.237c-22.792,0-44.29-2.011-60.532-5.661c-3.477-0.781-5.662-4.233-4.88-7.71
		c0.783-3.476,4.23-5.663,7.71-4.88c15.342,3.448,35.833,5.347,57.703,5.347c43.745,0,71.348-7.507,76.621-12.309
		c-2.309-1.963-10.071-5.873-28.758-8.907c-3.518-0.57-5.907-3.886-5.336-7.403c0.571-3.517,3.893-5.907,7.403-5.334
		c27.002,4.383,40.127,11.452,40.127,21.613C346.057,208.528,265.217,209.237,255.999,209.237z"/>
</g>
<g>
	<path style="fill:#B78349;" d="M406.709,440.632c-3.428,0-6.686-2.017-8.107-5.373c-3.305-7.811-6.377-16.413-9.128-25.566
		c-1.398-4.654,1.24-9.56,5.892-10.96c4.662-1.401,9.56,1.24,10.961,5.892c2.569,8.547,5.424,16.546,8.482,23.776
		c1.894,4.474-0.199,9.638-4.674,11.532C409.015,440.407,407.852,440.632,406.709,440.632z"/>
	<path style="fill:#B78349;" d="M390.093,384.526c-4.1,0-7.77-2.881-8.615-7.055c-10.135-50.093-10.251-96.486-10.251-98.437
		c0-4.859,3.938-8.798,8.798-8.799h0.001c4.859,0,8.796,3.938,8.799,8.796c0,0.461,0.129,46.649,9.902,94.95
		c0.963,4.763-2.118,9.405-6.88,10.369C391.258,384.469,390.672,384.526,390.093,384.526z"/>
	<path style="fill:#B78349;" d="M346.065,467.31c-3.869,0-7.416-2.573-8.482-6.485c-14.639-53.673-17.178-104.068-17.278-106.186
		c-0.231-4.853,3.515-8.975,8.368-9.207c4.855-0.23,8.976,3.515,9.209,8.367c0.025,0.501,2.567,50.658,16.678,102.395
		c1.279,4.689-1.485,9.526-6.173,10.804C347.611,467.209,346.832,467.31,346.065,467.31z"/>
	<path style="fill:#B78349;" d="M263.61,452.756c-4.86,0-8.799-3.94-8.799-8.799V320.265c0-4.859,3.938-8.799,8.799-8.799
		s8.799,3.94,8.799,8.799v123.692C272.409,448.818,268.47,452.756,263.61,452.756z"/>
	<path style="fill:#B78349;" d="M146.193,448.285c-0.899,0-1.813-0.138-2.714-0.431c-4.622-1.497-7.158-6.458-5.661-11.082
		c5.865-18.111,10.996-41.162,15.252-68.51c0.747-4.801,5.238-8.095,10.047-7.341c4.802,0.747,8.089,5.245,7.342,10.047
		c-4.399,28.265-9.749,52.229-15.899,71.225C153.357,445.917,149.905,448.285,146.193,448.285z"/>
	<path style="fill:#B78349;" d="M166.303,344.657c-0.332,0-0.668-0.019-1.004-0.056c-4.829-0.549-8.298-4.909-7.749-9.736
		c1.71-15.045,2.447-25.111,2.454-25.21c0.351-4.846,4.564-8.496,9.411-8.139c4.846,0.351,8.49,4.564,8.139,9.41
		c-0.031,0.421-0.766,10.493-2.52,25.928C174.524,341.342,170.718,344.657,166.303,344.657z"/>
</g>
<path style="fill:#82B236;" d="M403.183,0c-20.615,2.949-39.142,16.487-47.475,37.197c-8.332,20.709-4.344,43.307,8.484,59.711
	c20.615-2.949,39.142-16.487,47.475-37.197C420,39.002,416.012,16.404,403.183,0z"/>
<g>
</g>
<g>
</g>
<g>
</g>
<g>
</g>
<g>
</g>
<g>
</g>
<g>
</g>
<g>
</g>
<g>
</g>
<g>
</g>
<g>
</g>
<g>
</g>
<g>
</g>
<g>
</g>
<g>
</g>
</svg>
