<?xml version="1.0" encoding="iso-8859-1"?>
<!-- Generator: Adobe Illustrator 19.0.0, SVG Export Plug-In . SVG Version: 6.00 Build 0)  -->
<svg version="1.1" id="Capa_1" xmlns="http://www.w3.org/2000/svg" xmlns:xlink="http://www.w3.org/1999/xlink" x="0px" y="0px"
	 viewBox="0 0 512 512" style="enable-background:new 0 0 512 512;" xml:space="preserve">
<path style="fill:#7BCC29;" d="M512,196v150c0,8.399-6.599,15-15,15H15c-8.401,0-15-6.601-15-15V196c0-8.401,6.599-15,15-15
	c39,0,75.399-22.2,93.1-58.2C136,66.099,192.7,31,256,31s120,35.099,147.9,91.8c17.701,36,54.1,58.2,93.1,58.2
	C505.401,181,512,187.599,512,196z"/>
<g>
	<path style="fill:#6EB825;" d="M512,196v150c0,8.399-6.599,15-15,15H256V31c63.3,0,120,35.099,147.9,91.8
		c17.701,36,54.1,58.2,93.1,58.2C505.401,181,512,187.599,512,196z"/>
	<path style="fill:#6EB825;" d="M512,301v165c0,8.399-6.599,15-15,15H15c-8.401,0-15-6.601-15-15V301h15
		c42.9-1.8,74.5-23.101,91.601-55.501c25.8-48.3,71.1-85.199,125.7-92.999c8.098-1.2,15.899-1.5,23.699-1.5
		c63.3,0,119.7,35.099,147.9,91.8c16.5,32.999,48.1,56.1,93.1,58.2H512z"/>
</g>
<path style="fill:#63A622;" d="M512,301v165c0,8.399-6.599,15-15,15H256V151c63.3,0,119.7,35.099,147.9,91.8
	c16.5,32.999,48.1,56.1,93.1,58.2H512z"/>
<path style="fill:#7F838C;" d="M361,316c0,57.9-47.1,105-105,105s-105-47.1-105-105c0-22.2,6.899-43.2,19.2-60h171.6
	C354.101,272.8,361,293.8,361,316z"/>
<path style="fill:#5C5F66;" d="M256,211c-35.4,0-66.899,17.699-85.8,45c18.9,27.299,50.4,45,85.8,45s66.899-17.701,85.8-45
	C322.899,228.699,291.4,211,256,211z"/>
<path style="fill:#757982;" d="M361,316c0,57.9-47.1,105-105,105V256h85.8C354.101,272.8,361,293.8,361,316z"/>
<path style="fill:#53565C;" d="M341.8,256c-18.9,27.299-50.4,45-85.8,45v-90C291.4,211,322.899,228.699,341.8,256z"/>
<g>
</g>
<g>
</g>
<g>
</g>
<g>
</g>
<g>
</g>
<g>
</g>
<g>
</g>
<g>
</g>
<g>
</g>
<g>
</g>
<g>
</g>
<g>
</g>
<g>
</g>
<g>
</g>
<g>
</g>
</svg>
